/* XPM */
static char * ticksquare_xpm[] = {
"64 64 6 1",
" 	c None",
".	c #000000",
"+	c #101020",
"@	c #292929",
"#	c #D5D2D5",
"$	c #B2AE74",
"                                                                ",
"                                                                ",
"                                                                ",
"                                                                ",
"    .......................................................+    ",
"    .@@@@@@@@@@@@@@@@@@@@@@@@@@@@@@@@@@@@@@@@@@@@@@@@@@@@@@#    ",
"    .@@@@@@@@@@@@@@@@@@@@@@@@@@@@@@@@@@@@@@@@@@@@@@@@@@@@@@#    ",
"    .@@@@@@@@@@@@@@@@@@@@@@@@@@$$$@@@@@@@@@@@@@@@@@@@@@@@@@#    ",
"    .@@@@@@@@@@@@@@@@@@@@@@@@@@$$$@@@@@@@@@@@@@@@@@@@@@@@@@#    ",
"    .@@@@@@@@@@@@@@@@@@@@@@@@@@$$$@@@@@@@@@@@@@@@@@@@@@@@@@#    ",
"    .@@@@@@@@@@@@@@@@@@@@@@@@@@@@@@@@@@@@@@@@@@@@@@@@@@@@@@#    ",
"    .@@@@@@@@@@@@@@@$$@@@@@@@@@@@@@@@@@@@@@$$@@@@@@@@@@@@@@#    ",
"    .@@@@@@@@@@@@@@@$$@@@@@@@@@@@@@@@@@@@@@$$@@@@@@@@@@@@@@#    ",
"    .@@@@@@@@@@@@@@@@@@@@@@@@@@@@@@@@@@@@@@@@@@@@@@@@@@@@@@#    ",
"    .@@@@@@@@@@@@@@@@@@@@@@@@@@@@@@@@@@@@@@@@@@@@@@@@@@@@@@#    ",
"    .@@@@@@@@@@@@@@@@@@@@@@@@@@@@@@@@@@@@@@@@@@@@@@@@@@@@@@#    ",
"    .@@@@@@@@@@@@@@@@@@@@@@@@@@@@@@@@@@@@@@@@@@@@@@@@@@@@@@#    ",
"    .@@@@@@@@@@@@@@@@@@@@@@@@@@@@@@@@@@@@@@@@@@@@@@@@@@@@@@#    ",
"    .@@@@@@@@@@@@@@@@@@@@@@@@@@@@@@@@@@@@@@@@@@@@@@@@@@@@@@#    ",
"    .@@@@@@@@@@@@@@@@@@@@@@@@@@@@@@@@@@@@@@@@@@@@@@@@@@@@@@#    ",
"    .@@@@@@$$@@@@@@@@@@@@@@@@@@@@@@@@@@@@@@@@@@@@@@@$$@@@@@#    ",
"    .@@@@@@$$@@@@@@@@@@@@@@@@@@@@@@@@@@@@@@@@@@@@@@@$$@@@@@#    ",
"    .@@@@@@@@@@@@@@@@@@@@@@@@@@@@@@@@@@@@@@@@@@@@@@@@@@@@@@#    ",
"    .@@@@@@@@@@@@@@@@@@@@@@@@@@@@@@@@@@@@@@@@@@@@@@@@@@@@@@#    ",
"    .@@@@@@@@@@@@@@@@@@@@@@@@@@@@@@@@@@@@@@@@@@@@@@@@@@@@@@#    ",
"    .@@@@@@@@@@@@@@@@@@@@@@@@@@@@@@@@@@@@@@@@@@@@@@@@@@@@@@#    ",
"    .@@@@@@@@@@@@@@@@@@@@@@@@@@@@@@@@@@@@@@@@@@@@@@@@@@@@@@#    ",
"    .@@@@@@@@@@@@@@@@@@@@@@@@@@@@@@@@@@@@@@@@@@@@@@@@@@@@@@#    ",
"    .@@@@@@@@@@@@@@@@@@@@@@@@@@@@@@@@@@@@@@@@@@@@@@@@@@@@@@#    ",
"    .@@@@@@@@@@@@@@@@@@@@@@@@@@@@@@@@@@@@@@@@@@@@@@@@@@@@@@#    ",
"    .@@@@@@@@@@@@@@@@@@@@@@@@@@@@@@@@@@@@@@@@@@@@@@@@@@@@@@#    ",
"    .@@$$$@@@@@@@@@@@@@@@@@@@@@@@@@@@@@@@@@@@@@@@@@@@@@$$$@#    ",
"    .@@$$$@@@@@@@@@@@@@@@@@@@@@@@@@@@@@@@@@@@@@@@@@@@@@$$$@#    ",
"    .@@$$$@@@@@@@@@@@@@@@@@@@@@@@@@@@@@@@@@@@@@@@@@@@@@$$$@#    ",
"    .@@@@@@@@@@@@@@@@@@@@@@@@@@@@@@@@@@@@@@@@@@@@@@@@@@@@@@#    ",
"    .@@@@@@@@@@@@@@@@@@@@@@@@@@@@@@@@@@@@@@@@@@@@@@@@@@@@@@#    ",
"    .@@@@@@@@@@@@@@@@@@@@@@@@@@@@@@@@@@@@@@@@@@@@@@@@@@@@@@#    ",
"    .@@@@@@@@@@@@@@@@@@@@@@@@@@@@@@@@@@@@@@@@@@@@@@@@@@@@@@#    ",
"    .@@@@@@@@@@@@@@@@@@@@@@@@@@@@@@@@@@@@@@@@@@@@@@@@@@@@@@#    ",
"    .@@@@@@@@@@@@@@@@@@@@@@@@@@@@@@@@@@@@@@@@@@@@@@@@@@@@@@#    ",
"    .@@@@@@@@@@@@@@@@@@@@@@@@@@@@@@@@@@@@@@@@@@@@@@@@@@@@@@#    ",
"    .@@@@@@@@@@@@@@@@@@@@@@@@@@@@@@@@@@@@@@@@@@@@@@@@@@@@@@#    ",
"    .@@@@@@@@@@@@@@@@@@@@@@@@@@@@@@@@@@@@@@@@@@@@@@@@@@@@@@#    ",
"    .@@@@@@$$@@@@@@@@@@@@@@@@@@@@@@@@@@@@@@@@@@@@@@@$$@@@@@#    ",
"    .@@@@@@$$@@@@@@@@@@@@@@@@@@@@@@@@@@@@@@@@@@@@@@@$$@@@@@#    ",
"    .@@@@@@@@@@@@@@@@@@@@@@@@@@@@@@@@@@@@@@@@@@@@@@@@@@@@@@#    ",
"    .@@@@@@@@@@@@@@@@@@@@@@@@@@@@@@@@@@@@@@@@@@@@@@@@@@@@@@#    ",
"    .@@@@@@@@@@@@@@@@@@@@@@@@@@@@@@@@@@@@@@@@@@@@@@@@@@@@@@#    ",
"    .@@@@@@@@@@@@@@@@@@@@@@@@@@@@@@@@@@@@@@@@@@@@@@@@@@@@@@#    ",
"    .@@@@@@@@@@@@@@@@@@@@@@@@@@@@@@@@@@@@@@@@@@@@@@@@@@@@@@#    ",
"    .@@@@@@@@@@@@@@@@@@@@@@@@@@@@@@@@@@@@@@@@@@@@@@@@@@@@@@#    ",
"    .@@@@@@@@@@@@@@@@@@@@@@@@@@@@@@@@@@@@@@@@@@@@@@@@@@@@@@#    ",
"    .@@@@@@@@@@@@@@@$$@@@@@@@@@@@@@@@@@@@@@$$@@@@@@@@@@@@@@#    ",
"    .@@@@@@@@@@@@@@@$$@@@@@@@@@@@@@@@@@@@@@$$@@@@@@@@@@@@@@#    ",
"    .@@@@@@@@@@@@@@@@@@@@@@@@@@@@@@@@@@@@@@@@@@@@@@@@@@@@@@#    ",
"    .@@@@@@@@@@@@@@@@@@@@@@@@@@$$$@@@@@@@@@@@@@@@@@@@@@@@@@#    ",
"    .@@@@@@@@@@@@@@@@@@@@@@@@@@$$$@@@@@@@@@@@@@@@@@@@@@@@@@#    ",
"    .@@@@@@@@@@@@@@@@@@@@@@@@@@$$$@@@@@@@@@@@@@@@@@@@@@@@@@#    ",
"    .@@@@@@@@@@@@@@@@@@@@@@@@@@@@@@@@@@@@@@@@@@@@@@@@@@@@@@#    ",
"    +#######################################################    ",
"                                                                ",
"                                                                ",
"                                                                ",
"                                                                "};
