/* XPM */
static char * icon_xpm[] = {
"36 36 91 1",
" 	c None",
".	c #020205",
"+	c #B50202",
"@	c #6E6F7A",
"#	c #700220",
"$	c #FD8D2B",
"%	c #4A4E56",
"&	c #E24C19",
"*	c #3C3A41",
"=	c #4E0235",
"-	c #36363E",
";	c #333238",
">	c #D73A12",
",	c #340242",
"'	c #272B34",
")	c #B22A16",
"!	c #8E0212",
"~	c #020218",
"{	c #F47526",
"]	c #FCD621",
"^	c #2D0241",
"/	c #02022E",
"(	c #C91E09",
"_	c #260247",
":	c #747681",
"<	c #FEB624",
"[	c #EE6522",
"}	c #210249",
"|	c #543634",
"1	c #02023A",
"2	c #AB0307",
"3	c #A03228",
"4	c #4A525A",
"5	c #5A022F",
"6	c #C21607",
"7	c #262630",
"8	c #19024E",
"9	c #5D4838",
"0	c #818492",
"a	c #625C3C",
"b	c #030243",
"c	c #EB5E1F",
"d	c #820217",
"e	c #C31203",
"f	c #FDA925",
"g	c #4E3236",
"h	c #8A2626",
"i	c #3E4048",
"j	c #A0030B",
"k	c #680226",
"l	c #E6521A",
"m	c #F6E276",
"n	c #5F5951",
"o	c #FB842B",
"p	c #C00E03",
"q	c #22262E",
"r	c #02024C",
"s	c #430238",
"t	c #464951",
"u	c #99020E",
"v	c #120254",
"w	c #9494A4",
"x	c #5D5E5E",
"y	c #FDC51D",
"z	c #DB3E12",
"A	c #1A1E2A",
"B	c #D4310F",
"C	c #FC9929",
"D	c #F06E23",
"E	c #BE0502",
"F	c #F6CA46",
"G	c #513A39",
"H	c #AE160E",
"I	c #9A1A1A",
"J	c #868A98",
"K	c #620328",
"L	c #D0290A",
"M	c #FA7E2A",
"N	c #0E0257",
"O	c #3C023E",
"P	c #77021C",
"Q	c #040257",
"R	c #67676E",
"S	c #DE4416",
"T	c #12023E",
"U	c #E7581D",
"V	c #FAE24A",
"W	c #B70A05",
"X	c #5E523F",
"Y	c #8E121E",
"Z	c #7A7D88",
"ww000JJ0000JJ0JJ0000JJ00JJ000JJJ000@",
"JR%%tttttttttittt%ttttit%ttttt%%ttxt",
"J%..~11TskPddP#K=s^TTT}^^,^/b1/~.q@t",
"J4.~/br}5!2++jud#Ks,}_^s==svQb1/.;0t",
"0%../br}K!2+++u!P#=O^,s=Kk5_Qr1/.'Zt",
"Jt.~/br}kj+E++2!PkK=Os5Kk#K,Qr1/.;Zi",
"0t.~/bQ^#u+E++2udk5=s=kk#P#=vrb/~;0t",
"0t.~/rQ,#u++E+2!dkKK=K#P!!d58Qb/.;Zi",
"0t.~/bQ^#u++E+2!dkKK5kdduj!K_Qb/~'Zi",
"Zt.~/rQ,#u+E+2j!PK5Kk#!j22jdOQr/.;Zi",
"Zt.~/rN,#u+E+2ud#K5KkPu2++2!5Nr1~;Zi",
"0i.~/rQ,#u+++2!P#55K#!2+EWE2k}r1.;Zi",
"0i.~/rNOPu++2ud#k55K#u+Ep6e+d,Q1~;:i",
":t.~1bQs#u2++!#K5==kdjEe(((Wu=Q1~;:*",
"Zi.~1rNsPj222dk5s=5kd2p(LLL6+kNb~;:*",
"Zi.~1r8=Pu22uP5sss5#!+e(Bz>Lpd8b~;:*",
":i.~1Q}5d2+2!#=O,O5#jE(BzSS>(u^r~;@*",
":i.~bQ,#!2+2!ks^,O5Pjp(>S&&SL2Or~;:-",
":i.~bN=d2++2d5,}_O5d+6BzlUU&>p=r/':-",
"@*.~r8#j+EE2d=_8}O5dE(>&UccUz6PQ~;@;",
":*./b,u+ppp+d=}v}OK!pLSlc[[US(dQ/;@-",
"@*./rK+6((e+dOvv}skjeB&U[DD[&Bjv/'@;",
"@-./Q!(BBL(EdONN}=P2(>l[D{D[l>W}/;@;",
":-./vWSSzBL6!,QN_=d+LSU[{MMDUze,/'@-",
"@-./^(UclSB6!,QN^5!EB&[DMoMDUS(=1;R-",
"@-./,>DDUS>(u,QQ,Kj6B&c{o$$DUSBd1;@;",
"@-./=&M{c&SLj,QQ,k2(zlc{$f${US>jb;@;",
"@;./5UC$[SS>W,QQ,#+L&lU{C<f{l&&(T'R;",
"@;.1Kcff[SSSW,QNOPpzl&l{fy<{l&c>};@;",
"@-.1k[y<[BSl6}QNsd(lU&S{f]yMl&Dcs;@'",
"@'.1#Uyyl6Sc6vQN5!BD[BB{<]yolloo#;@;",
"@-.b!Sy]z!SD)Qr}P!&C{He{fy]fUcffh;R'",
"R;~KHIFm)_UChNb,H5DV{#Y$$$]<c{Vf3i@'",
"@i;G|-Xng;9ng;;-|;9n9;gX9XaX99aXGnR;",
"R%RRRRRRRRRRxRxRRRRRRRRRRRRRRRRRRRt'",
"x'''77''q'''''''77'''q'qq''q'77'q''A"};
