/* XPM */
static char * lttr_xpm[] = {
"239 7 3 1",
"0	c #BEFBBEFBBEFB  s dockapp_color0",
"1	c #28A228A228A2  s dockapp_color1",
"2	c #861786178617  s dockapp_color2",
"11111111111111111120002111011120002120002101110100000120002120000120002120002111111120002100002120002100002100002100002120002121112120002120001101110101111101110101110120002100002120002100002120002100000101110101110101110101110101110100000",
"11011111111111111101110110011101110101110101110101111101110111110101110101110111111101110101110101110101110101111101111101110101110111011111101101110101111100200100110101110101110101110101110101110111011101110101110101110101110101110111120",
"11011111111111111101100121011111110111110101110100002101111111110101110101110111111101110101110101111101110101111101111101111101110111011111101101110101111101010102010101110101110101110101110101111111011101110101110101110110101110101111101",
"00000100000111111101010111011111001110000120000111110100002111101120002120000111111100000100002101111101110100002100002101100100000111011111101100002101111101210101010101110100002101110100002120002111011101110110101101010111011111011111011",
"11011111111111111100110111011110111111110111110111110101110111101101110111110111111101110101110101111101110101111101111101110101110111011111101101110101111101110101020101110101111101010101110111110111011101110110101101010110101111011110111",
"11011111111111111101110111011101111101110111110101110101110111011101110111110111111101110101110101110101110101111101111101110101110111011101101101110101111101110101100101110101111101102101110101110111011101110110101101010101110111011102111",
"11111111111111011120002120002100000120002111110120002120002111011120002120002111111101110100002120002100002100002101111120002121112120002120021101110100002101110101110120002101111120020101110120002111011120002112021120202101110111011100000"};
